<svg width="360" height="360" viewBox="0 0 360 360" fill="none" xmlns="http://www.w3.org/2000/svg">
<g clip-path="url(#clip0_13576_107959)">
<path d="M237.958 113.544C226.146 107.469 210.846 102.842 193.813 100.779C176.781 98.7167 160.813 99.5642 147.898 102.647C153.103 80.9642 174.366 66.1967 197.661 69.0167C220.956 71.8367 238.078 91.2467 237.966 113.544H237.958Z" stroke="#73849B" stroke-width="1.5" stroke-miterlimit="10"/>
<path d="M205.496 62.7453C205.796 60.2628 204.026 58.0128 201.551 57.7128C199.076 57.4128 196.818 59.1828 196.518 61.6578C196.308 63.3828 197.118 64.9878 198.461 65.9103L198.086 68.4228L202.233 68.9253L202.608 66.4128C204.131 65.8353 205.301 64.4703 205.503 62.7453H205.496ZM193.946 93.9378C140.253 87.4428 94.6157 99.4203 92.0432 120.683C89.4707 141.953 130.938 164.46 184.631 170.955C238.323 177.45 283.961 165.473 286.533 144.21C289.106 122.94 247.638 100.433 193.946 93.9378ZM188.006 155.76C156.483 151.95 131.876 141.128 133.023 131.625C134.178 122.108 160.653 117.488 192.176 121.298C223.676 125.108 247.286 136.11 247.136 145.425C245.988 154.92 219.506 159.563 188.006 155.753V155.76Z" fill="#659EEA"/>
<path d="M201.391 201.762C201.391 201.2 203.033 200.975 203.378 201.155C203.723 201.335 203.971 203.022 203.378 202.955C202.786 202.887 202.703 202.055 202.703 202.055C202.703 202.055 201.398 202.325 201.398 201.77H201.391V201.762Z" fill="#73849B"/>
<path d="M194.016 231.659C194.016 231.659 195.719 234.149 197.061 236.834C198.404 239.519 201.299 242.759 203.774 242.474C206.249 242.189 206.729 244.754 205.386 245.564C204.044 246.374 201.531 247.229 196.836 246.157C192.141 245.084 178.184 242.129 175.904 234.217C173.624 226.297 171.441 216.337 175.154 208.822C178.859 201.307 189.329 197.219 189.329 197.219C189.329 197.219 195.509 189.434 201.846 188.639C202.949 188.504 203.924 189.344 203.976 190.454L204.156 194.159C204.156 194.159 205.791 194.137 206.841 195.637C206.841 195.637 209.061 194.234 210.951 193.544C211.971 193.169 213.051 193.927 213.074 195.014C213.096 196.477 212.159 198.967 211.341 200.444C211.341 200.444 211.671 203.137 210.156 205.867C208.641 208.597 203.616 210.397 203.616 210.397" stroke="#73849B" stroke-width="1.5" stroke-linecap="round" stroke-linejoin="round"/>
<path d="M197.642 236.097C197.642 236.097 200.575 234.424 203.732 231.964C210.625 231.139 211.465 228.424 211.397 227.074C211.33 225.724 209.83 224.637 207.385 226.887C205.36 228.747 201.82 226.159 200.327 223.272C199.007 220.722 198.595 217.377 197.305 215.359M174.632 229.429C174.632 229.429 177.002 242.172 171.647 245.307C166.292 248.442 165.932 251.119 169.15 251.209C172.367 251.299 180.122 247.647 179.83 239.539" stroke="#73849B" stroke-width="1.5" stroke-linecap="round" stroke-linejoin="round"/>
<path d="M192.945 206.297C192.945 206.297 193.838 209.784 200.01 210.234C206.183 210.684 207.9 209.784 207.398 212.289C206.895 214.794 198.488 216.137 195.09 214.884" stroke="#73849B" stroke-width="1.5" stroke-linecap="round" stroke-linejoin="round"/>
<path d="M207.855 208.152C209.123 207.237 211.628 206.404 212.01 208.467C212.4 210.529 209.948 211.332 207.315 212.562M199.215 199.047L202.125 199.017L201.465 196.797M206.715 202.797L205.545 200.839L208.215 200.547M105.48 285.679C102.743 273.117 100.463 254.974 106.74 244.377M109.155 244.354C110.865 244.354 112.245 242.967 112.245 241.264C112.245 239.562 110.865 238.174 109.155 238.174C107.445 238.174 106.065 239.562 106.065 241.264C106.065 242.967 107.445 244.354 109.155 244.354Z" stroke="#73849B" stroke-width="1.5" stroke-linecap="round" stroke-linejoin="round"/>
<path d="M111.635 268.162C106.617 269.879 104.48 273.157 104.367 277.522C109.34 276.052 112.16 273.187 111.635 268.162ZM101.877 261.914C102.62 256.664 100.677 253.274 96.8372 251.189C95.8922 256.289 97.1597 260.107 101.877 261.914ZM109.97 237.809C111.29 237.809 112.355 236.744 112.355 235.424C112.355 234.104 111.29 233.039 109.97 233.039C108.65 233.039 107.585 234.104 107.585 235.424C107.585 236.744 108.65 237.809 109.97 237.809ZM105.012 239.759C106.332 239.759 107.397 238.694 107.397 237.374C107.397 236.054 106.332 234.989 105.012 234.989C103.692 234.989 102.627 236.054 102.627 237.374C102.627 238.694 103.692 239.759 105.012 239.759ZM114.215 240.712C115.535 240.712 116.6 239.647 116.6 238.327C116.6 237.007 115.535 235.942 114.215 235.942C112.895 235.942 111.83 237.007 111.83 238.327C111.83 239.647 112.895 240.712 114.215 240.712ZM117.477 300.742L103.767 304.124L96.3047 287.939L116.562 282.952L117.477 300.742Z" stroke="#73849B" stroke-width="1.5" stroke-linecap="round" stroke-linejoin="round"/>
<path d="M313.632 104.338L308.69 101.923L308.45 96.4251C308.435 96.0201 307.88 95.9151 307.707 96.2826L305.457 101.263L300.02 101.503C299.615 101.518 299.51 102.073 299.877 102.245L304.805 104.473L304.88 109.88C304.88 110.285 305.435 110.413 305.615 110.045L308 105.148L313.467 105.073C313.872 105.073 314 104.518 313.632 104.338ZM162.5 37.7601L158.615 35.8626L158.427 31.5426C158.412 31.2201 157.977 31.1376 157.85 31.4301L156.08 35.3451L151.805 35.5326C151.482 35.5476 151.4 35.9826 151.692 36.1101L155.57 37.8576L155.63 42.1101C155.63 42.4326 156.065 42.5301 156.207 42.2376L158.082 38.3901L162.38 38.3301C162.702 38.3301 162.8 37.8951 162.507 37.7526L162.5 37.7601ZM59.5548 145.918L56.6148 144.485L56.4723 141.215C56.4648 140.975 56.1348 140.908 56.0298 141.133L54.6948 144.095L51.4623 144.238C51.2223 144.245 51.1548 144.575 51.3798 144.68L54.3123 146L54.3573 149.218C54.3573 149.458 54.6873 149.533 54.7923 149.315L56.2098 146.405L59.4573 146.36C59.6973 146.36 59.7723 146.03 59.5548 145.925V145.918Z" fill="#659EEA"/>
<path d="M133.024 131.633L130.879 136.208M126.799 144.923L47.2163 314.805M45.1763 319.163L43.0312 323.745M247.136 145.433L248.111 150.398M250.106 160.485L280.999 316.83M177.199 145.718L166.031 188.378M220.489 184.043L225.949 230.978M228.619 268.32L234.071 315.255M151.414 236.333L140.246 278.993M135.641 294.593L128.426 322.163M281.996 321.87L282.979 326.835" stroke="#73849B" stroke-width="1.5" stroke-linecap="round" stroke-linejoin="round"/>
</g>
<defs>
<clipPath id="clip0_13576_107959">
<rect width="360" height="360" fill="white"/>
</clipPath>
</defs>
</svg>
